<svg aria-hidden="true" style="position: absolute; width: 0; height: 0; overflow: hidden;" version="1.1" xmlns="http://www.w3.org/2000/svg" xmlns:xlink="http://www.w3.org/1999/xlink">
<defs>
<symbol id="icon-burger" viewBox="0 0 45 32">
<path stroke-linejoin="miter" stroke-linecap="round" stroke-miterlimit="4" stroke-width="4.1739" d="M8.862 4.701h33.573"></path>
<path stroke-linejoin="miter" stroke-linecap="round" stroke-miterlimit="4" stroke-width="4.1739" d="M8.862 24.095h33.573"></path>
<path stroke-linejoin="miter" stroke-linecap="round" stroke-miterlimit="4" stroke-width="4.1739" d="M19.508 14.398h22.926"></path>
</symbol>
<symbol id="icon-close" viewBox="0 0 32 32">
<path stroke-linejoin="round" stroke-linecap="round" stroke-miterlimit="4" stroke-width="2.4" d="M24 8l-16 16"></path>
<path stroke-linejoin="round" stroke-linecap="round" stroke-miterlimit="4" stroke-width="2.4" d="M8 8l16 16"></path>
</symbol>
<symbol id="icon-facebook" viewBox="0 0 32 32">
<path d="M19.52 4.64c0.24 0 0.48 0 0.96 0v3.6c-0.24 0-0.72 0-1.2 0s-0.96 0-1.2 0.24c-0.24 0.24-0.24 0.48-0.24 1.040 0 0.48 0 0.8 0 1.28h2.64v3.040h-2.64v13.2h-4.080v-13.28h-2.16v-3.040h2.16v-1.040c0-1.76 0.24-3.040 0.72-3.6 0.72-1.040 2.16-1.52 4.32-1.52 0.24 0.080 0.48 0.080 0.72 0.080z"></path>
</symbol>
<symbol id="icon-instagram" viewBox="0 0 32 32">
<path d="M28.718 10.756c-0.016-1.074-0.215-2.14-0.596-3.145-0.667-1.716-2.024-3.073-3.743-3.737-0.994-0.373-2.044-0.573-3.108-0.596-1.368-0.061-1.801-0.078-5.273-0.078s-3.916 0-5.274 0.078c-1.062 0.023-2.113 0.223-3.106 0.596-1.719 0.664-3.078 2.021-3.743 3.737-0.374 0.992-0.576 2.041-0.596 3.101-0.061 1.367-0.080 1.8-0.080 5.265s0 3.909 0.080 5.265c0.021 1.062 0.222 2.109 0.596 3.104 0.667 1.714 2.024 3.071 3.744 3.735 0.989 0.386 2.040 0.605 3.106 0.639 1.369 0.061 1.803 0.079 5.274 0.079s3.916 0 5.274-0.079c1.062-0.021 2.112-0.221 3.108-0.595 1.719-0.666 3.076-2.022 3.743-3.737 0.374-0.994 0.574-2.041 0.596-3.104 0.061-1.365 0.080-1.798 0.080-5.265-0.003-3.466-0.003-3.906-0.082-5.264zM15.99 22.531c-3.631 0-6.572-2.936-6.572-6.561s2.941-6.561 6.572-6.561c3.628 0 6.572 2.936 6.572 6.561s-2.944 6.561-6.572 6.561zM22.824 10.696c-0.849 0-1.532-0.684-1.532-1.53s0.684-1.53 1.532-1.53c0.846 0 1.531 0.684 1.531 1.53s-0.685 1.53-1.531 1.53z"></path>
<path d="M15.992 19.976c2.211 0 4.004-1.793 4.004-4.004s-1.793-4.004-4.004-4.004c-2.211 0-4.004 1.793-4.004 4.004s1.793 4.004 4.004 4.004z"></path>
</symbol>
<symbol id="icon-youtube" viewBox="0 0 32 32">
<path d="M24.24 6c-1.36-0.080-4.16-0.16-8.4-0.16h-0.56c-4.080 0-6.8 0.080-8.16 0.24-1.84 0.16-3.12 0.64-3.84 1.28-0.64 0.56-1.12 1.6-1.28 2.96-0.080 0.88-0.16 2.72-0.16 5.52v0.4c0 2.64 0.080 4.48 0.24 5.36 0.24 1.28 0.64 2.24 1.44 2.8 0.8 0.64 2.16 1.040 4.080 1.2 1.36 0.080 4.16 0.16 8.4 0.16h0.56c4.080 0 6.8-0.080 8.16-0.24 1.84-0.16 3.12-0.64 3.84-1.28 0.64-0.56 1.12-1.6 1.28-2.96 0.080-0.88 0.16-2.72 0.16-5.52v-0.4c0-2.64-0.080-4.48-0.24-5.36-0.24-1.28-0.64-2.24-1.44-2.8-0.8-0.64-2.16-1.040-4.080-1.2zM21.12 15.84l-8.8 5.28v-10.56l8.8 5.28z"></path>
</symbol>
<symbol id="icon-scroll-down" viewBox="0 0 32 32">
<path d="M16.947 17.867c-0.124 0.125-0.271 0.224-0.434 0.292s-0.337 0.103-0.513 0.103c-0.176 0-0.35-0.035-0.513-0.103s-0.31-0.167-0.434-0.292l-6.107-6.12c-0.124-0.125-0.271-0.224-0.434-0.292s-0.337-0.103-0.513-0.103c-0.176 0-0.35 0.035-0.513 0.103s-0.31 0.167-0.434 0.292c-0.248 0.25-0.388 0.588-0.388 0.94s0.139 0.69 0.388 0.94l6.12 6.12c0.75 0.749 1.767 1.17 2.827 1.17s2.077-0.421 2.827-1.17l6.12-6.12c0.246-0.248 0.385-0.584 0.387-0.933 0.001-0.175-0.033-0.349-0.099-0.512s-0.164-0.31-0.288-0.435c-0.124-0.125-0.271-0.224-0.434-0.292s-0.337-0.103-0.513-0.103c-0.176 0-0.35 0.035-0.513 0.103s-0.31 0.167-0.434 0.292l-6.107 6.12z"></path>
</symbol>
<symbol id="icon-warning" viewBox="0 0 32 32">
<path d="M15.652 0c1.446 0 2.832 0.185 4.158 0.554s2.576 0.891 3.75 1.565c1.174 0.674 2.228 1.489 3.163 2.446s1.75 2.016 2.446 3.179 1.223 2.408 1.582 3.734c0.359 1.326 0.543 2.717 0.554 4.174 0 1.446-0.185 2.832-0.554 4.158s-0.891 2.576-1.565 3.75c-0.674 1.174-1.489 2.228-2.446 3.163s-2.016 1.75-3.179 2.446-2.408 1.223-3.734 1.582c-1.326 0.359-2.717 0.543-4.174 0.554-1.446 0-2.832-0.185-4.158-0.554s-2.576-0.891-3.75-1.565c-1.174-0.674-2.228-1.489-3.163-2.446s-1.75-2.016-2.446-3.179-1.223-2.408-1.582-3.734c-0.359-1.326-0.543-2.717-0.554-4.174 0-1.446 0.185-2.832 0.554-4.158s0.891-2.576 1.565-3.75c0.674-1.174 1.489-2.228 2.446-3.163s2.016-1.75 3.179-2.446c1.163-0.696 2.408-1.223 3.734-1.582s2.717-0.543 4.174-0.554zM15.652 29.217c1.239 0 2.435-0.163 3.587-0.489s2.234-0.783 3.245-1.369c1.011-0.587 1.929-1.294 2.755-2.12s1.533-1.739 2.12-2.739c0.587-1 1.043-2.082 1.369-3.245s0.489-2.364 0.489-3.603-0.163-2.435-0.489-3.587c-0.326-1.152-0.783-2.234-1.369-3.245s-1.294-1.929-2.12-2.755c-0.826-0.826-1.739-1.533-2.739-2.12s-2.082-1.043-3.245-1.37c-1.163-0.326-2.364-0.489-3.603-0.489-1.25 0-2.451 0.163-3.603 0.489s-2.228 0.783-3.228 1.37c-1 0.587-1.918 1.293-2.755 2.12s-1.543 1.739-2.12 2.739c-0.576 1-1.033 2.082-1.37 3.245s-0.5 2.364-0.489 3.603c0 1.239 0.163 2.435 0.489 3.587s0.783 2.234 1.37 3.245c0.587 1.011 1.293 1.929 2.12 2.755s1.739 1.533 2.739 2.12c1 0.587 2.082 1.043 3.245 1.369s2.364 0.489 3.603 0.489zM14.609 8.348h2.087v10.435h-2.087v-10.435zM14.609 20.87h2.087v2.087h-2.087v-2.087z"></path>
</symbol>
<symbol id="icon-page-error" viewBox="0 0 39 32">
<path fill="#8c8c8c" style="fill: var(--color1, #8c8c8c)" d="M10.562 28.995v-0.567c0-0.044 0.010-0.087 0.028-0.127s0.046-0.077 0.081-0.108 0.075-0.055 0.121-0.072c0.045-0.017 0.093-0.025 0.142-0.025h-4.939c-0.099 0-0.193 0.035-0.263 0.097s-0.109 0.147-0.109 0.235v0.567c0 0.088 0.039 0.173 0.109 0.235s0.164 0.098 0.263 0.098h4.939c-0.099-0-0.193-0.035-0.263-0.098s-0.109-0.147-0.109-0.235z"></path>
<path fill="#fff" style="fill: var(--color2, #fff)" d="M14.055 28.141l0.042-0.025c0.002-0.001 0.004-0.003 0.005-0.006s0.001-0.005 0-0.007c-0.001-0.002-0.003-0.004-0.005-0.006s-0.005-0.002-0.008-0.002h-3.156c-0.049 0-0.097 0.009-0.142 0.025s-0.086 0.041-0.121 0.072-0.062 0.067-0.081 0.108c-0.019 0.040-0.028 0.084-0.028 0.127v0.567c0 0.088 0.039 0.173 0.109 0.235s0.164 0.098 0.263 0.098h3.156c0.003-0 0.005-0.001 0.008-0.002s0.004-0.003 0.005-0.006c0.001-0.002 0.001-0.005-0-0.007s-0.003-0.004-0.005-0.006l-0.042-0.024v-1.142z"></path>
<path fill="#fff" style="fill: var(--color2, #fff)" d="M10.983 28.141h3.072v1.142h-3.072c-0.046 0-0.093-0.007-0.136-0.023s-0.082-0.039-0.115-0.068c-0.033-0.029-0.059-0.064-0.077-0.102s-0.027-0.080-0.027-0.121v-0.513c0-0.041 0.009-0.083 0.027-0.121s0.044-0.073 0.077-0.102c0.033-0.029 0.072-0.052 0.115-0.068s0.089-0.023 0.136-0.023z"></path>
<path fill="#4dc274" style="fill: var(--color3, #4dc274)" d="M10.828 27.734v-0.567c0-0.088 0.039-0.173 0.109-0.235s0.164-0.097 0.263-0.097h-4.939c-0.099 0-0.193 0.035-0.263 0.097s-0.109 0.147-0.109 0.235v0.567c0 0.088 0.039 0.173 0.109 0.235s0.164 0.097 0.263 0.097h4.939c-0.099 0-0.193-0.035-0.263-0.097s-0.109-0.147-0.109-0.235z"></path>
<path fill="#8c8c8c" style="fill: var(--color1, #8c8c8c)" d="M14.321 26.879l0.042-0.025c0.002-0.001 0.004-0.003 0.005-0.005s0.001-0.005 0-0.007c-0.001-0.002-0.003-0.004-0.005-0.006s-0.005-0.002-0.008-0.002h-3.156c-0.099 0-0.193 0.035-0.263 0.097s-0.109 0.147-0.109 0.235v0.567c0 0.088 0.039 0.173 0.109 0.235s0.164 0.097 0.263 0.097h3.16c0.003 0 0.006-0 0.008-0.002s0.004-0.003 0.005-0.006c0.001-0.002 0.001-0.005-0-0.007s-0.003-0.004-0.005-0.006l-0.042-0.025-0.004-1.142z"></path>
<path fill="#fff" style="fill: var(--color2, #fff)" d="M11.249 26.879h3.072v1.142h-3.072c-0.093 0-0.183-0.033-0.249-0.092s-0.103-0.139-0.103-0.223v-0.515c0.001-0.083 0.038-0.162 0.104-0.221s0.155-0.091 0.248-0.091z"></path>
<path fill="#263238" style="fill: var(--color4, #263238)" d="M6.742 27.742v-0.614h0.266v0.063h-0.17v0.203h0.138v0.061h-0.138v0.225h0.173v0.062l-0.269 0.001z"></path>
<path fill="#263238" style="fill: var(--color4, #263238)" d="M7.087 27.742v-0.614h0.065l0.196 0.408v-0.408h0.081v0.614h-0.061l-0.198-0.419v0.419h-0.083z"></path>
<path fill="#263238" style="fill: var(--color4, #263238)" d="M7.699 27.75c-0.036 0.002-0.073-0.007-0.103-0.025-0.027-0.018-0.047-0.043-0.056-0.073-0.013-0.037-0.019-0.075-0.018-0.113v-0.203c-0.001-0.039 0.005-0.077 0.015-0.115 0.009-0.029 0.028-0.055 0.056-0.073 0.034-0.018 0.073-0.027 0.113-0.025 0.036-0.001 0.071 0.005 0.104 0.019 0.027 0.013 0.047 0.034 0.058 0.059 0.013 0.032 0.019 0.066 0.018 0.1v0.023h-0.090v-0.019c0-0.022-0.002-0.044-0.006-0.066-0.002-0.015-0.010-0.028-0.024-0.038-0.018-0.010-0.039-0.014-0.060-0.012-0.011-0.001-0.022-0-0.033 0.003s-0.020 0.008-0.029 0.014c-0.013 0.013-0.021 0.030-0.024 0.047-0.003 0.023-0.005 0.045-0.005 0.068v0.227c-0 0.024 0.002 0.049 0.007 0.073 0.003 0.017 0.013 0.032 0.028 0.044 0.017 0.011 0.037 0.016 0.058 0.015 0.021 0.002 0.041-0.004 0.058-0.016 0.015-0.012 0.025-0.029 0.028-0.046 0.005-0.026 0.008-0.052 0.007-0.078v-0.043h-0.087v-0.060h0.174v0.304h-0.060l-0.010-0.073c-0.008 0.022-0.023 0.041-0.042 0.056-0.022 0.016-0.049 0.024-0.077 0.024z"></path>
<path fill="#263238" style="fill: var(--color4, #263238)" d="M7.989 27.742v-0.614h0.096v0.553h0.176v0.062h-0.272z"></path>
<path fill="#263238" style="fill: var(--color4, #263238)" d="M8.331 27.742v-0.614h0.094v0.614h-0.094z"></path>
<path fill="#263238" style="fill: var(--color4, #263238)" d="M8.698 27.749c-0.034 0.001-0.069-0.007-0.098-0.023-0.026-0.015-0.047-0.037-0.060-0.063-0.015-0.029-0.023-0.061-0.024-0.093l0.081-0.021c0.002 0.021 0.005 0.042 0.011 0.063 0.005 0.018 0.015 0.036 0.029 0.050 0.008 0.006 0.016 0.011 0.026 0.015s0.020 0.005 0.031 0.004c0.010 0.001 0.021-0.001 0.031-0.004s0.019-0.008 0.026-0.015c0.007-0.007 0.012-0.016 0.016-0.025s0.005-0.019 0.004-0.029c0.001-0.024-0.007-0.048-0.022-0.067-0.016-0.019-0.034-0.036-0.054-0.051l-0.115-0.091c-0.021-0.016-0.038-0.036-0.050-0.058-0.011-0.025-0.016-0.052-0.014-0.078-0.001-0.019 0.002-0.038 0.009-0.056s0.019-0.034 0.034-0.048c0.016-0.013 0.034-0.023 0.055-0.029s0.042-0.009 0.063-0.008c0.024-0 0.049 0.003 0.072 0.009 0.020 0.006 0.038 0.016 0.052 0.029 0.014 0.014 0.025 0.031 0.032 0.049 0.009 0.023 0.015 0.048 0.017 0.073l-0.081 0.020c-0.001-0.019-0.005-0.037-0.010-0.055-0.004-0.016-0.013-0.030-0.027-0.041-0.016-0.011-0.035-0.016-0.054-0.015-0.010-0.001-0.020 0-0.030 0.003s-0.018 0.007-0.026 0.013c-0.014 0.014-0.021 0.032-0.020 0.051-0 0.016 0.003 0.031 0.011 0.046 0.009 0.014 0.021 0.027 0.035 0.038l0.116 0.091c0.027 0.021 0.050 0.046 0.069 0.073 0.020 0.030 0.030 0.065 0.029 0.1 0.001 0.027-0.006 0.054-0.021 0.078-0.013 0.021-0.033 0.039-0.058 0.050-0.027 0.011-0.057 0.017-0.087 0.015z"></path>
<path fill="#263238" style="fill: var(--color4, #263238)" d="M8.938 27.742v-0.614h0.097v0.265h0.176v-0.265h0.096v0.614h-0.096v-0.29h-0.176v0.29h-0.097z"></path>
<path fill="#fff" style="fill: var(--color2, #fff)" d="M4.126 17.551h-0.192v10.561h0.192v-10.561z"></path>
<path fill="#fff" style="fill: var(--color2, #fff)" d="M3.934 17.551l-0.135-0.258 0.211-0.412 0.205 0.427-0.089 0.243h-0.192z"></path>
<path fill="#fff" style="fill: var(--color2, #fff)" d="M5.109 28.916l-0.297-0.118c-0.171-0.068-0.317-0.178-0.419-0.319s-0.156-0.304-0.156-0.471v-0.062h-0.417v0.062c0 0.168-0.055 0.332-0.157 0.472s-0.249 0.251-0.421 0.318l-0.297 0.118c-0.1 0.040-0.185 0.105-0.244 0.187s-0.091 0.178-0.092 0.275h2.839c-0.001-0.098-0.033-0.194-0.093-0.276s-0.146-0.147-0.246-0.186z"></path>
<path fill="#fff" style="fill: var(--color2, #fff)" d="M5.946 25.843c-0.021 0.184-0.054 0.339-0.108 0.413-0.063 0.069-0.137 0.13-0.22 0.178-0.551 0.366-1.884 1.012-1.884 1.012l-2.688-3.902c-0.052-0.081-0.088-0.17-0.107-0.262-0.012-0.066 0.649-1.271 1.362-2.553 0.145-0.261 0.294-0.526 0.438-0.784 0.691-1.23 1.316-2.329 1.316-2.329s0.878 1.813 1.065 2.452c0.087 0.355 0.153 0.714 0.197 1.076 0.047 0.329 0.090 0.675 0.126 0.976 0.048 0.39 0.081 0.703 0.103 0.805 0.053 0.286 0.426 1.832 0.426 1.832 0.015 0.362 0.006 0.725-0.025 1.086z"></path>
<path fill="#4dc274" style="fill: var(--color3, #4dc274)" d="M5.946 25.843c-0.060-0.194-0.13-0.408-0.188-0.547-0.132-0.316-1.269-2.384-1.269-2.384s0.632-0.427 0.953-0.789c-0.036-0.301-0.081-0.647-0.126-0.976-0.225 0.205-0.833 0.749-1.212 0.931 0 0-0.855-1.425-1.107-1.768-0.092-0.126-0.183-0.254-0.26-0.363-0.144 0.258-0.293 0.523-0.438 0.784l1.082 1.758c0 0-1.718 0.974-2.154 1.32l0.482 0.699 2.042-1.161 1.866 3.091z"></path>
<path fill="#92e3a9" style="fill: var(--color5, #92e3a9)" d="M4.053 17.616l-0.004 0.080-0.152 3.062 0.178 0.303 0.191-3.060-0.213-0.384z"></path>
<path fill="#92e3a9" style="fill: var(--color5, #92e3a9)" d="M5.536 23.357l0.162 0.54-0.516-0.514-0.162-0.356 0.516 0.33z"></path>
<path fill="#92e3a9" style="fill: var(--color5, #92e3a9)" d="M2.378 21.971l0.222 0.224-0.945-0.29 0.118-0.171 0.605 0.237z"></path>
<path fill="#92e3a9" style="fill: var(--color5, #92e3a9)" d="M3.839 24.412l0.015 2.995 0.207-0.106v-2.704l-0.222-0.185z"></path>
<path fill="#263238" style="fill: var(--color4, #263238)" d="M3.057 19.412l0.635 1.002 0.059-2.256-0.694 1.253z"></path>
<path fill="#263238" style="fill: var(--color4, #263238)" d="M4.532 18.66l-0.088 2.691 0.828-0.646-0.152-0.637c0 0-0.335-1.091-0.588-1.408z"></path>
<path fill="#263238" style="fill: var(--color4, #263238)" d="M5.521 22.658l-0.31 0.237 0.428 0.303-0.118-0.54z"></path>
<path fill="#263238" style="fill: var(--color4, #263238)" d="M5.949 25.691l-0.325-1.517 0.384 0.91-0.059 0.606z"></path>
<path fill="#263238" style="fill: var(--color4, #263238)" d="M5.211 26.654l-0.915-1.491-0.044 2.019 0.959-0.528z"></path>
<path fill="#263238" style="fill: var(--color4, #263238)" d="M3.381 26.892l0.045-2.809-1.417 0.844 1.372 1.965z"></path>
<path fill="#263238" style="fill: var(--color4, #263238)" d="M1.065 23.462c0 0 0.826-0.778 1.358-0.936l-0.959-0.29-0.525 1.046 0.127 0.181z"></path>
<path fill="#263238" style="fill: var(--color4, #263238)" d="M14.784 23.831c0.136 0.054 0.47 0.047 0.47 0.047s-0.071-0.195-0.081-0.207c-0.073-0.136-0.304-0.363-0.493-0.339-0.031 0.005-0.061 0.015-0.087 0.030s-0.049 0.036-0.066 0.059c-0.017 0.024-0.028 0.050-0.033 0.078s-0.003 0.056 0.005 0.084c0.035 0.117 0.169 0.203 0.285 0.248z"></path>
<path fill="#263238" style="fill: var(--color4, #263238)" d="M14.899 24.695c0.141 0.018 0.439-0.059 0.463-0.065 0.049 0.152 0.109 0.302 0.18 0.447 0.041 0.084 0.085 0.169 0.131 0.252-0.027-0.036-0.051-0.067-0.055-0.073-0.111-0.115-0.401-0.278-0.576-0.212-0.029 0.012-0.054 0.029-0.075 0.050s-0.036 0.046-0.046 0.073c-0.009 0.027-0.012 0.055-0.009 0.083s0.014 0.055 0.030 0.079c0.065 0.105 0.22 0.157 0.345 0.173s0.382-0.045 0.45-0.062l0.054 0.096c0.086 0.154 0.173 0.306 0.253 0.458 0.028 0.054 0.054 0.107 0.081 0.161l-0.049-0.062c-0.111-0.115-0.401-0.278-0.576-0.212-0.029 0.012-0.054 0.029-0.075 0.050s-0.036 0.046-0.046 0.073c-0.009 0.027-0.012 0.055-0.008 0.083s0.014 0.055 0.030 0.079c0.064 0.105 0.219 0.157 0.344 0.173 0.149 0.001 0.296-0.019 0.438-0.059 0.024 0.056 0.049 0.112 0.070 0.166 0.014 0.038 0.029 0.073 0.041 0.112s0.024 0.073 0.035 0.113c0.019 0.073 0.041 0.145 0.058 0.218 0.012 0.049 0.023 0.096 0.033 0.145-0.027-0.054-0.081-0.157-0.089-0.166-0.090-0.128-0.349-0.329-0.533-0.29-0.030 0.008-0.059 0.021-0.083 0.039s-0.044 0.041-0.058 0.066c-0.014 0.025-0.022 0.053-0.023 0.081s0.004 0.056 0.016 0.082c0.046 0.112 0.191 0.185 0.312 0.218s0.428 0.004 0.466 0c0.017 0.079 0.034 0.156 0.048 0.228 0.032 0.16 0.056 0.305 0.074 0.427h0.124c-0.021-0.126-0.049-0.276-0.088-0.445-0.017-0.080-0.038-0.165-0.060-0.252 0.089-0.032 0.176-0.068 0.26-0.11 0.114 0.088 0.242 0.161 0.379 0.218-0.034 0.073-0.068 0.145-0.101 0.218-0.069 0.141-0.135 0.267-0.192 0.374h0.135c0.049-0.099 0.104-0.211 0.162-0.335 0.035-0.073 0.071-0.157 0.106-0.241 0.036 0.007 0.325 0.059 0.464 0.032 0.123-0.025 0.273-0.087 0.325-0.197 0.014-0.025 0.022-0.053 0.023-0.081s-0.004-0.056-0.016-0.083c-0.012-0.026-0.029-0.050-0.052-0.070s-0.050-0.035-0.079-0.045c-0.18-0.054-0.454 0.129-0.556 0.251-0.006 0.007-0.060 0.091-0.094 0.145 0.015-0.034 0.029-0.067 0.043-0.103 0.029-0.073 0.055-0.14 0.081-0.218 0.012-0.037 0.024-0.073 0.037-0.112s0.022-0.078 0.034-0.118c0.024-0.092 0.044-0.186 0.062-0.281 0.069 0.023 0.314 0.099 0.441 0.091s0.285-0.050 0.358-0.15c0.018-0.023 0.030-0.049 0.036-0.077s0.005-0.056-0.002-0.083-0.021-0.053-0.039-0.075c-0.019-0.022-0.043-0.041-0.070-0.055-0.169-0.078-0.471 0.066-0.592 0.173-0.007 0.007-0.081 0.092-0.125 0.14 0.010-0.057 0.020-0.115 0.028-0.173 0.024-0.169 0.041-0.339 0.060-0.508 0.006-0.052 0.011-0.104 0.018-0.156 0.024 0.008 0.313 0.104 0.456 0.095 0.126-0.007 0.285-0.049 0.358-0.149 0.018-0.023 0.030-0.049 0.036-0.077s0.005-0.056-0.002-0.083c-0.007-0.027-0.021-0.053-0.039-0.075s-0.043-0.041-0.070-0.055c-0.169-0.078-0.471 0.066-0.592 0.173-0.009 0.008-0.119 0.131-0.145 0.164 0.014-0.115 0.028-0.229 0.048-0.341 0.026-0.152 0.062-0.302 0.11-0.449 0.011 0.004 0.312 0.106 0.458 0.096 0.127-0.008 0.285-0.049 0.358-0.149 0.018-0.023 0.030-0.049 0.036-0.077s0.005-0.056-0.002-0.083c-0.007-0.027-0.021-0.053-0.039-0.075s-0.043-0.041-0.070-0.055c-0.169-0.078-0.471 0.065-0.592 0.173-0.010 0.008-0.128 0.141-0.148 0.166 0-0.009 0.005-0.017 0.008-0.026 0.052-0.146 0.119-0.288 0.199-0.424 0.043-0.073 0.089-0.145 0.136-0.213 0.054 0.025 0.302 0.132 0.434 0.136s0.289-0.021 0.374-0.113c0.021-0.021 0.036-0.046 0.046-0.073s0.012-0.055 0.009-0.083c-0.004-0.028-0.014-0.055-0.030-0.079s-0.038-0.045-0.063-0.062c-0.162-0.094-0.477 0.019-0.609 0.114-0.007 0.005-0.075 0.065-0.123 0.108 0.022-0.030 0.043-0.062 0.064-0.090 0.081-0.107 0.162-0.2 0.232-0.283 0.041-0.046 0.081-0.088 0.115-0.126 0.067 0 0.336-0.008 0.454-0.057s0.243-0.139 0.273-0.255c0.008-0.027 0.009-0.056 0.003-0.084s-0.018-0.054-0.035-0.078-0.041-0.043-0.068-0.058c-0.027-0.015-0.057-0.024-0.088-0.028-0.189-0.018-0.413 0.213-0.482 0.352-0.006 0.012-0.075 0.208-0.072 0.208h0.004c-0.036 0.036-0.073 0.073-0.114 0.12-0.074 0.081-0.157 0.173-0.239 0.279-0.090 0.113-0.173 0.231-0.247 0.353-0.085 0.136-0.155 0.279-0.212 0.426 0 0 0 0.004 0 0.005 0-0.049 0-0.189 0-0.2-0.021-0.15-0.162-0.429-0.349-0.46-0.031-0.004-0.063-0.003-0.093 0.004s-0.059 0.020-0.083 0.038c-0.024 0.018-0.045 0.040-0.059 0.065s-0.022 0.053-0.024 0.081c-0.011 0.12 0.086 0.239 0.18 0.315 0.107 0.085 0.406 0.168 0.426 0.174-0.053 0.151-0.095 0.305-0.125 0.461-0.018 0.091-0.033 0.183-0.047 0.275 0-0.043 0-0.081 0-0.087-0.022-0.15-0.162-0.429-0.35-0.46-0.031-0.004-0.063-0.003-0.093 0.004s-0.059 0.020-0.083 0.038c-0.024 0.018-0.044 0.040-0.059 0.065s-0.022 0.053-0.024 0.081c-0.011 0.12 0.086 0.239 0.18 0.315s0.347 0.152 0.413 0.17l-0.015 0.107c-0.023 0.17-0.045 0.34-0.072 0.508-0.009 0.059-0.021 0.116-0.032 0.174 0-0.038 0-0.073 0-0.073-0.022-0.151-0.162-0.429-0.35-0.461-0.031-0.004-0.063-0.003-0.094 0.004s-0.059 0.020-0.083 0.038c-0.025 0.018-0.045 0.040-0.059 0.065s-0.022 0.053-0.024 0.081c-0.011 0.119 0.086 0.239 0.181 0.314 0.123 0.074 0.258 0.13 0.401 0.167-0.014 0.059-0.028 0.118-0.044 0.173-0.012 0.038-0.021 0.073-0.036 0.113s-0.027 0.073-0.040 0.112c-0.029 0.073-0.058 0.145-0.088 0.21-0.020 0.048-0.041 0.092-0.061 0.137 0.011-0.058 0.028-0.173 0.028-0.182-0.002-0.133-0.042-0.264-0.117-0.379 0.002-0.015 0.002-0.030 0-0.045-0.004-0.028-0.015-0.055-0.031-0.079s-0.038-0.045-0.064-0.061c-0.026-0.016-0.055-0.027-0.086-0.032s-0.063-0.005-0.094 0.002c-0.183 0.044-0.299 0.332-0.308 0.483 0 0.009 0.006 0.107 0.011 0.168-0.009-0.036-0.018-0.073-0.028-0.107-0.020-0.073-0.041-0.145-0.064-0.222-0.012-0.037-0.025-0.073-0.038-0.112s-0.029-0.073-0.044-0.115c-0.037-0.088-0.081-0.177-0.123-0.265 0.071-0.015 0.325-0.073 0.424-0.145s0.207-0.182 0.206-0.302c0.001-0.028-0.005-0.056-0.017-0.082s-0.030-0.050-0.053-0.069c-0.023-0.019-0.050-0.034-0.080-0.044s-0.062-0.013-0.093-0.010c-0.189 0.018-0.353 0.29-0.387 0.435 0 0.009-0.013 0.118-0.018 0.178-0.028-0.053-0.054-0.105-0.081-0.158-0.081-0.152-0.175-0.303-0.265-0.455-0.028-0.046-0.054-0.093-0.081-0.139 0.025-0.005 0.325-0.067 0.439-0.145 0.101-0.069 0.207-0.182 0.206-0.302 0.001-0.028-0.005-0.056-0.017-0.083s-0.030-0.050-0.053-0.069c-0.023-0.019-0.050-0.034-0.080-0.044s-0.062-0.013-0.093-0.011c-0.189 0.018-0.353 0.29-0.387 0.435 0 0.011-0.019 0.168-0.020 0.208-0.060-0.102-0.118-0.205-0.171-0.308-0.072-0.139-0.134-0.282-0.185-0.428 0.012 0 0.325-0.066 0.441-0.145 0.101-0.073 0.208-0.181 0.206-0.301 0.001-0.028-0.005-0.056-0.017-0.083s-0.030-0.050-0.053-0.069c-0.023-0.019-0.050-0.034-0.080-0.044s-0.062-0.013-0.093-0.011c-0.189 0.018-0.353 0.29-0.387 0.435 0 0.012-0.019 0.181-0.020 0.211 0-0.009-0.007-0.017-0.010-0.025-0.047-0.148-0.079-0.299-0.096-0.452-0.011-0.084-0.015-0.165-0.019-0.244 0.060-0.007 0.334-0.039 0.446-0.1s0.228-0.16 0.243-0.28c0.004-0.028 0.002-0.056-0.007-0.084s-0.024-0.052-0.044-0.074c-0.020-0.022-0.046-0.039-0.074-0.051s-0.059-0.019-0.091-0.020c-0.19 0-0.386 0.251-0.438 0.395 0 0.008-0.022 0.091-0.035 0.151 0-0.036 0-0.073 0-0.107 0-0.128 0.009-0.246 0.018-0.35 0.006-0.059 0.012-0.112 0.019-0.163 0.055-0.033 0.275-0.172 0.342-0.271s0.12-0.236 0.071-0.348c-0.010-0.027-0.027-0.051-0.049-0.071s-0.048-0.037-0.077-0.047c-0.029-0.011-0.061-0.016-0.092-0.015s-0.063 0.008-0.091 0.020c-0.169 0.078-0.213 0.382-0.186 0.531 0 0.013 0.067 0.211 0.070 0.21-0.008 0.048-0.015 0.099-0.022 0.156-0.011 0.104-0.024 0.222-0.027 0.35-0.006 0.139-0.002 0.278 0.011 0.416 0.013 0.155 0.042 0.309 0.086 0.46 0 0.002 0 0.003 0 0.005-0.029-0.042-0.118-0.157-0.126-0.165-0.11-0.115-0.401-0.278-0.575-0.212-0.029 0.012-0.054 0.029-0.075 0.050s-0.036 0.046-0.046 0.073c-0.009 0.027-0.012 0.055-0.009 0.083s0.014 0.055 0.030 0.079c0.058 0.098 0.212 0.149 0.338 0.166z"></path>
<path fill="#263238" style="fill: var(--color4, #263238)" d="M18.157 23.897c0 0 0.061-0.198 0.063-0.211 0.024-0.15-0.030-0.453-0.201-0.527-0.029-0.012-0.060-0.018-0.092-0.018s-0.063 0.006-0.092 0.017c-0.029 0.011-0.055 0.028-0.076 0.049s-0.037 0.046-0.047 0.072c-0.046 0.112 0.012 0.251 0.081 0.346 0.080 0.112 0.363 0.271 0.363 0.271z"></path>
<path fill="#fff" style="fill: var(--color2, #fff)" d="M17.725 29.339h-1.823l-0.228-1.809h2.279l-0.228 1.809z"></path>
<path fill="#263238" style="fill: var(--color4, #263238)" d="M15.717 27.861l0.022 0.175h2.15l0.023-0.175h-2.195z"></path>
<path fill="#263238" style="fill: var(--color4, #263238)" d="M17.841 28.422l0.022-0.176h-2.098l0.022 0.176h2.054z"></path>
<path fill="#263238" style="fill: var(--color4, #263238)" d="M7.062 2.982v-1.002h-0.978v1.002l-3.022 1.203h7.022l-3.023-1.203z"></path>
<path fill="#fff" style="fill: var(--color2, #fff)" d="M26.842 6.712h-21.093v14.129h21.093v-14.129z"></path>
<path fill="#fff" style="fill: var(--color2, #fff)" d="M27.648 20.803h-22.705v0.75h22.705v-0.75z"></path>
<path fill="#263238" style="fill: var(--color4, #263238)" d="M26.142 7.181h-19.693v13.191h19.693v-13.191z"></path>
<path fill="#92e3a9" style="fill: var(--color5, #92e3a9)" d="M24.464 10.374c0 0 0.006 0 0.009 0s-0.007 0.005-0.009 0z"></path>
<path fill="#92e3a9" style="fill: var(--color5, #92e3a9)" d="M24.556 10.311c-0.022 0.025-0.049 0.046-0.081 0.061 0.013-0.020 0.043-0.081 0.081-0.061z"></path>
<path fill="#92e3a9" style="fill: var(--color5, #92e3a9)" d="M24.409 10.334l0.034-0.016c-0.006 0.022-0.021 0.007-0.034 0.016z"></path>
<path fill="#92e3a9" style="fill: var(--color5, #92e3a9)" d="M24.448 10.351l0.011 0.011-0.025 0.003 0.015-0.014z"></path>
<path fill="#92e3a9" style="fill: var(--color5, #92e3a9)" d="M23.291 11.681c0.008 0.001 0.016 0.005 0.021 0.012l-0.021-0.012z"></path>
<path fill="#92e3a9" style="fill: var(--color5, #92e3a9)" d="M23.18 11.693c-0.006 0.002-0.011 0.005-0.015 0.009 0.002-0.004 0.007-0.007 0.015-0.009z"></path>
<path fill="#92e3a9" style="fill: var(--color5, #92e3a9)" d="M23.339 11.626l-0.009 0.012c0.001-0.005 0.004-0.009 0.009-0.012z"></path>
<path fill="#92e3a9" style="fill: var(--color5, #92e3a9)" d="M23.935 10.969c0.016-0.002 0.032-0.004 0.047-0.007-0.011 0.026-0.032 0.012-0.047 0.007z"></path>
<path fill="#92e3a9" style="fill: var(--color5, #92e3a9)" d="M22.742 11.807l0.007 0.011c-0.007-0.004-0.012-0.004-0.007-0.011z"></path>
<path fill="#92e3a9" style="fill: var(--color5, #92e3a9)" d="M23.008 11.576c0.005 0.003 0.008 0.007 0.011 0.012h-0.005l-0.006-0.012z"></path>
<path fill="#92e3a9" style="fill: var(--color5, #92e3a9)" d="M23.36 11.571h0.015c-0.001 0.001-0.002 0.002-0.003 0.002s-0.003 0.001-0.004 0.001c-0.001 0-0.003-0-0.004-0.001s-0.002-0.001-0.003-0.002z"></path>
<path fill="#92e3a9" style="fill: var(--color5, #92e3a9)" d="M22.647 11.875c-0.011-0.001-0.021-0.004-0.031-0.007 0.005-0.002 0.011-0.002 0.017-0.001s0.011 0.004 0.014 0.008z"></path>
<path fill="#92e3a9" style="fill: var(--color5, #92e3a9)" d="M23.101 11.503l-0.018 0.009c0.001-0.003 0.004-0.006 0.007-0.008s0.007-0.002 0.011-0.002z"></path>
<path fill="#92e3a9" style="fill: var(--color5, #92e3a9)" d="M23.935 10.969h-0.015c0.003-0.002 0.008-0.001 0.015 0z"></path>
<path fill="#92e3a9" style="fill: var(--color5, #92e3a9)" d="M24.422 10.457c-0.008 0.008-0.016 0.004-0.025 0 0.008-0.002 0.017-0.002 0.025 0z"></path>
<path fill="#92e3a9" style="fill: var(--color5, #92e3a9)" d="M21.819 12.176l-0.006 0.009c-0.005-0.001-0.001-0.009 0.006-0.009z"></path>
<path fill="#92e3a9" style="fill: var(--color5, #92e3a9)" d="M21.872 12.231c-0.002-0.002-0.004-0.004-0.006-0.006s-0.002-0.005-0.002-0.008c0.004 0.004 0.007 0.009 0.008 0.014z"></path>
<path fill="#92e3a9" style="fill: var(--color5, #92e3a9)" d="M22.954 11.998c-0.002-0.002-0.003-0.003-0.004-0.005s-0.001-0.004-0-0.006c0.003 0.003 0.005 0.007 0.004 0.012z"></path>
<path fill="#92e3a9" style="fill: var(--color5, #92e3a9)" d="M23.008 11.966l0.002-0.001h0.003l-0.005 0.001z"></path>
<path fill="#92e3a9" style="fill: var(--color5, #92e3a9)" d="M24.429 10.488c0.031 0.009-0.006 0.012-0.013 0.019 0.006-0.007-0.005-0.023 0.013-0.019z"></path>
<path fill="#92e3a9" style="fill: var(--color5, #92e3a9)" d="M24.334 10.514c0.011 0.001 0.022-0.002 0.031-0.007-0.004 0.005-0.011 0.009-0.031 0.007z"></path>
<path fill="#92e3a9" style="fill: var(--color5, #92e3a9)" d="M24.391 10.476c-0.005 0.012-0.014 0.023-0.026 0.030 0.006-0.008 0.004-0.021 0.026-0.030z"></path>
<path fill="#92e3a9" style="fill: var(--color5, #92e3a9)" d="M24.186 10.668c0.022 0 0.032-0.020 0.032-0.020-0.025 0.047 0.033 0.014 0.046 0.019-0.028 0.019-0.045 0.005-0.079 0.001z"></path>
<path fill="#92e3a9" style="fill: var(--color5, #92e3a9)" d="M24.129 10.712c0.003-0.004 0.006-0.008 0.007-0.012 0 0.002-0.001 0.005-0.002 0.007s-0.003 0.004-0.005 0.005z"></path>
<path fill="#92e3a9" style="fill: var(--color5, #92e3a9)" d="M24.128 10.736c-0.016 0.010-0.036 0-0.054 0 0.005-0.025 0.040-0.014 0.055-0.023-0.009 0.007-0.020 0.012-0.002 0.023z"></path>
<path fill="#92e3a9" style="fill: var(--color5, #92e3a9)" d="M23.796 11.187c0.005 0 0.012-0.009 0.020 0l-0.021 0.022c-0.014 0.002-0.002-0.016 0.001-0.022z"></path>
<path fill="#92e3a9" style="fill: var(--color5, #92e3a9)" d="M23.675 11.233c-0.019 0.015 0.012 0.025 0 0.029l-0.028-0.025 0.028-0.004z"></path>
<path fill="#92e3a9" style="fill: var(--color5, #92e3a9)" d="M23.539 11.102l0.008-0.002-0.006 0.004-0.002-0.002z"></path>
<path fill="#92e3a9" style="fill: var(--color5, #92e3a9)" d="M23.619 11.337l0.045 0.014c-0.024 0.007-0.049-0.014-0.045-0.014z"></path>
<path fill="#92e3a9" style="fill: var(--color5, #92e3a9)" d="M23.573 11.419l0.020-0.001-0.041 0.023 0.021-0.022z"></path>
<path fill="#92e3a9" style="fill: var(--color5, #92e3a9)" d="M22.574 12.311c-0.031-0.019 0.016-0.044 0.019-0.059 0.027 0.035-0.037 0.018-0.019 0.059z"></path>
<path fill="#92e3a9" style="fill: var(--color5, #92e3a9)" d="M21.907 12.26l0.015 0.043c-0.029-0.025-0.004-0.008-0.015-0.043z"></path>
<path fill="#92e3a9" style="fill: var(--color5, #92e3a9)" d="M24.592 12.572l-1.442-0.239-0.045 0.226 1.427 0.399 0.059-0.386z"></path>
<path fill="#fff" style="fill: var(--color2, #fff)" d="M25.767 11.563c0 0-1.13 0.013-1.217 0s-0.134 0.29-0.193 0.399c-0.059 0.109-0.416 0.491-0.325 0.558s0.416 0 0.461-0.053 0.178-0.279 0.178-0.279c0.062 0.018 0.119 0.048 0.167 0.087s0.088 0.086 0.115 0.139c0.035 0.079 0.047 0.164 0.034 0.248s-0.050 0.163-0.108 0.231c-0.059 0.040-0.491-0.080-0.568-0.107-0.047-0.024-0.103-0.033-0.157-0.026s-0.104 0.030-0.141 0.066c-0.133 0.107-0.208 0.266-0.089 0.332s0.312 0.040 0.387 0.067c0.075 0.027 0.52 0.332 0.803 0.398s0.877 0.253 0.877 0.253l1.798 2.843 0.73 1.076 1.275-2.031c0 0-2.048-1.463-2.404-1.755s-0.743-0.653-0.788-0.784c-0.045-0.131-0.431-1.396-0.536-1.568-0.026-0.048-0.072-0.084-0.128-0.102s-0.118-0.015-0.171 0.008z"></path>
<path fill="#263238" style="fill: var(--color4, #263238)" d="M35.578 29.339l-0.503-4.227-6.917 0.315 0.095 3.913h7.325z"></path>
<path fill="#fff" style="fill: var(--color2, #fff)" d="M35.075 25.112l-6.92 0.314 0.015 0.649c0.841 0.21 1.715 0.293 2.586 0.245 1.529-0.078 3.273-0.363 4.37-0.78l-0.051-0.428z"></path>
<path fill="#fff" style="fill: var(--color2, #fff)" d="M29.439 15.413c0 0-0.543 0.502-0.669 0.857s-0.597 1.116-0.796 2.086c-0.199 0.971-0.416 2.442-0.308 3.461s0.38 2.863 0.308 3.3c-0.072 0.437-0.054 0.533 0.144 0.63s1.863 0.356 3.689 0.211c1.826-0.145 3.384-0.631 3.437-0.792 0.074-0.314 0.11-0.634 0.109-0.955 0-0.339-0.054-2.426-0.054-2.507s0.217-3.574 0.308-4.207c0.090-0.633 0.181-1.161-0.615-1.714s-2.388-1.472-2.388-1.472-2.042 0.147-3.164 1.101z"></path>
<path fill="#fff" style="fill: var(--color2, #fff)" d="M30.193 14.502l-0.966 0.877 0.798 0.548 0.506-1-0.338-0.425z"></path>
<path fill="#fff" style="fill: var(--color2, #fff)" d="M29.994 13.584c0 0 0.153 0.918 0.153 1.001s-0.127 1.343-0.127 1.343c0 0 0.893-0.603 1.089-0.767s1.195-1.137 1.195-1.137c0 0 0.031-0.521 0.046-0.836s0.046-1.055 0.046-1.055-0.644 0.905-1.089 1.179c-0.445 0.274-1.315 0.274-1.315 0.274z"></path>
<path fill="#263238" style="fill: var(--color4, #263238)" d="M31.677 13.211c0 0-0.34 0.609-0.757 0.964s-0.726 0.328-0.726 0.328l-0.162-0.666 1.646-0.626z"></path>
<path fill="#fff" style="fill: var(--color2, #fff)" d="M28.839 9.776c0 0-0.042 2.321 0.105 2.64s0.591 1.169 0.843 1.32c0.252 0.151 0.949 0.207 1.266 0.094s0.823-0.622 1.118-1.015c0.295-0.393 0.316-0.929 0.316-0.929s0.612-0.132 0.781-0.339c0.169-0.207 0.295-0.773 0.042-0.905s-0.654 0.057-0.654 0.057 0.042-0.528-0.127-0.641c-0.169-0.113-0.401-0.377-0.422-0.508l-0.021-0.132c-0.473 0.152-0.96 0.266-1.456 0.339-0.717 0.099-1.793 0.020-1.793 0.020z"></path>
<path fill="#263238" style="fill: var(--color4, #263238)" d="M29.984 11.172c0 0.11-0.052 0.198-0.116 0.198s-0.116-0.088-0.116-0.198 0.052-0.197 0.116-0.197c0.064 0 0.116 0.088 0.116 0.197z"></path>
<path fill="#263238" style="fill: var(--color4, #263238)" d="M31.302 11.211c0 0.109-0.052 0.197-0.116 0.197s-0.116-0.088-0.116-0.197c0-0.109 0.052-0.197 0.116-0.197s0.116 0.088 0.116 0.197z"></path>
<path fill="#4dc274" style="fill: var(--color3, #4dc274)" d="M29.64 7.551c0 0-1.582 0.735-1.687 1.093s0.738 0.113 0.738 0.113-1.097 0.547-1.097 0.87c0 0.323 1.034 0.302 2.172 0.321s2.342-0.396 2.342-0.396-0.211 0.151 0.081 0.377c0.126 0.102 0.26 0.197 0.401 0.283l-0.063 0.604c0.106-0.073 0.228-0.125 0.359-0.151l0.169-0.019 0.081-0.698c0 0 0.527-0.151 0.359-1.132s-1.097-1.508-2.191-1.508-1.664 0.242-1.664 0.242z"></path>
<path fill="#fff" style="fill: var(--color2, #fff)" d="M32.401 13.653l-2.223 1.905 0.813 0.918 1.885-2.288-0.475-0.535z"></path>
<path fill="#fff" style="fill: var(--color2, #fff)" d="M29.228 15.379l-0.123 0.877 0.686-0.493-0.564-0.384z"></path>
<path fill="#fff" style="fill: var(--color2, #fff)" d="M30.178 15.558l-0.153 0.37 0.368-0.158-0.216-0.212z"></path>
<path fill="#fff" style="fill: var(--color2, #fff)" d="M32.387 18.826l1.772 3.881c0 0 0.253-0.275 0.85-0.435s1.429-0.145 1.429-0.145-0.868-2.183-0.811-2.669c0.057-0.485-0.201-2.204-0.201-2.204z"></path>
<path fill="#fff" style="fill: var(--color2, #fff)" d="M36.838 23.321c0 0-0.457 0.699-1.085 1.148-0.39 0.279-1.207 0.798-3.184 1.293-0.282 0.073-0.868 0.162-0.974-0.048s0.036-0.615 0.217-0.712 1.792-0.631 1.991-0.857c0.199-0.226 0.543-1.326 0.543-1.326s1.248-0.567 1.809-0.34c0.561 0.226 0.703 0.68 0.684 0.841z"></path>
<path fill="#fff" style="fill: var(--color2, #fff)" d="M33.78 22.984c0 0 0.307-0.777 1.249-1.003s1.339-0.323 1.465-0.194 0.47 0.841 0.524 1.084c0.054 0.243-0.181 0.453-0.181 0.453s-0.253-0.55-0.76-0.631c-0.506-0.081-1.592 0.421-1.882 0.534s-0.416-0.242-0.416-0.242z"></path>
<path fill="#fff" style="fill: var(--color2, #fff)" d="M27.059 22.415l0.102-0.168c0 0 1.198 0.306 1.848 0.413s1.386 0.26 1.642 0.367c0.256 0.107 0.53 0.428 0.53 0.428 0.035-0.129 0.107-0.248 0.209-0.344s0.23-0.168 0.373-0.206c0.496-0.138 2.703-0.857 2.908-0.933l0.291-0.107 0.067 0.114-3.83 1.706-4.139-1.269z"></path>
<path fill="#4dc274" style="fill: var(--color3, #4dc274)" d="M27.059 22.415l0.205 2.278 3.934 0.597-0.017-1.835-4.122-1.040z"></path>
<path fill="#4dc274" style="fill: var(--color3, #4dc274)" d="M31.182 23.455l3.847-1.477-0.374 2.455-3.456 0.857-0.017-1.835z"></path>
<path fill="#fff" style="fill: var(--color2, #fff)" d="M32.212 25.278c0 0 0.243-0.313 0.28-0.449s-0.081-0.427 0-0.605c0.081-0.178 0.152-0.397 0.325-0.511s0.269-0.271 0.012-0.271-0.665 0.345-0.794 0.543c-0.129 0.198-0.209 0.355-0.432 0.428s-0.724 0.083-1.062-0.031c-0.338-0.115-1.366-0.522-1.611-0.626s-0.42-0.073-0.35 0.083c0.071 0.156 0.568 0.417 0.723 0.543 0.093 0.077 0.179 0.161 0.257 0.25-0.281-0.067-0.557-0.147-0.828-0.24-0.42-0.145-0.619-0.125-0.596 0.031s0.537 0.345 0.618 0.397c0.081 0.052 0.351 0.386 0.502 0.48s0.487 0.177 0.934 0.229c0.447 0.052 1.074 0.29 1.436 0.334 0.258 0.020 0.518 0.003 0.77-0.052z"></path>
<path fill="#4dc274" style="fill: var(--color3, #4dc274)" d="M13.146 13.588v-0.522h-1.398v-0.493l1.010-2.141h0.603l-1.010 2.141h0.796v-0.822h0.535v0.822h0.296v0.493h-0.296v0.522h-0.535zM15.638 13.654c-0.224 0-0.421-0.048-0.592-0.142-0.171-0.096-0.305-0.23-0.401-0.401-0.095-0.171-0.142-0.368-0.142-0.592v-1.017c0-0.224 0.047-0.421 0.142-0.592 0.096-0.171 0.23-0.304 0.401-0.399 0.171-0.096 0.368-0.145 0.592-0.145s0.42 0.048 0.59 0.145c0.171 0.095 0.305 0.228 0.401 0.399s0.145 0.368 0.145 0.592v1.017c0 0.224-0.048 0.421-0.145 0.592s-0.23 0.305-0.401 0.401c-0.169 0.095-0.366 0.142-0.59 0.142zM15.638 13.152c0.111 0 0.212-0.026 0.302-0.079 0.091-0.054 0.162-0.126 0.215-0.215 0.053-0.091 0.079-0.191 0.079-0.302v-1.094c0-0.113-0.026-0.213-0.079-0.302-0.053-0.091-0.124-0.162-0.215-0.215-0.091-0.054-0.191-0.081-0.302-0.081s-0.212 0.027-0.302 0.081c-0.091 0.053-0.162 0.124-0.215 0.215-0.053 0.089-0.079 0.19-0.079 0.302v1.094c0 0.111 0.026 0.212 0.079 0.302 0.053 0.089 0.124 0.161 0.215 0.215 0.091 0.053 0.191 0.079 0.302 0.079zM18.699 13.588v-0.522h-1.398v-0.493l1.010-2.141h0.603l-1.010 2.141h0.796v-0.822h0.535v0.822h0.296v0.493h-0.296v0.522h-0.535z"></path>
<path fill="#4dc274" style="fill: var(--color3, #4dc274)" d="M8.671 16.7v-1.262h0.522c0.012 0 0.028 0.001 0.047 0.002s0.037 0.002 0.053 0.005c0.073 0.011 0.133 0.035 0.181 0.073s0.083 0.085 0.106 0.142c0.023 0.057 0.035 0.12 0.035 0.189s-0.012 0.132-0.035 0.189c-0.023 0.057-0.059 0.104-0.107 0.141s-0.107 0.062-0.18 0.073c-0.016 0.002-0.034 0.004-0.054 0.005s-0.035 0.002-0.046 0.002h-0.31v0.441h-0.211zM8.882 16.062h0.302c0.012 0 0.025-0.001 0.039-0.002s0.028-0.003 0.040-0.007c0.035-0.009 0.063-0.024 0.082-0.046s0.035-0.047 0.043-0.075c0.009-0.028 0.013-0.056 0.013-0.082s-0.004-0.054-0.013-0.082c-0.008-0.029-0.023-0.054-0.043-0.076s-0.047-0.038-0.082-0.046c-0.012-0.004-0.026-0.006-0.040-0.006s-0.028-0.002-0.039-0.002h-0.302v0.426zM9.616 16.7l0.398-1.262h0.309l0.398 1.262h-0.217l-0.361-1.133h0.047l-0.357 1.133h-0.217zM9.837 16.426v-0.197h0.663v0.197h-0.663zM11.366 16.726c-0.082 0-0.159-0.014-0.231-0.043s-0.134-0.072-0.188-0.128c-0.054-0.056-0.096-0.125-0.126-0.206s-0.046-0.175-0.046-0.281c0-0.138 0.026-0.256 0.077-0.353s0.122-0.173 0.211-0.225c0.089-0.053 0.19-0.079 0.302-0.079 0.155 0 0.279 0.036 0.369 0.109s0.153 0.173 0.185 0.303l-0.216 0.034c-0.024-0.075-0.063-0.134-0.117-0.179s-0.124-0.068-0.208-0.068c-0.085-0.001-0.155 0.017-0.211 0.055s-0.098 0.091-0.127 0.16c-0.028 0.069-0.042 0.15-0.042 0.242s0.014 0.173 0.042 0.241c0.028 0.068 0.070 0.121 0.126 0.159s0.127 0.058 0.212 0.059c0.064 0.001 0.12-0.011 0.167-0.034s0.087-0.060 0.117-0.108c0.030-0.048 0.051-0.109 0.061-0.181h-0.223v-0.166h0.447c0.001 0.009 0.002 0.023 0.003 0.041s0.001 0.029 0.001 0.032c0 0.119-0.024 0.225-0.071 0.318s-0.114 0.165-0.202 0.217-0.193 0.079-0.315 0.079zM12.13 16.7v-1.262h0.815v0.198h-0.604v0.311h0.499v0.198h-0.499v0.357h0.604v0.198h-0.815zM13.506 16.7v-1.262h0.214l0.586 0.89v-0.89h0.214v1.262h-0.214l-0.586-0.89v0.89h-0.214zM15.299 16.726c-0.126 0-0.234-0.027-0.324-0.082s-0.159-0.133-0.208-0.231c-0.048-0.099-0.072-0.213-0.072-0.344s0.024-0.245 0.072-0.344c0.049-0.099 0.118-0.176 0.208-0.231s0.198-0.083 0.324-0.083 0.234 0.028 0.324 0.083c0.091 0.055 0.16 0.132 0.208 0.231s0.073 0.213 0.073 0.344c0 0.13-0.024 0.245-0.073 0.344s-0.117 0.176-0.208 0.231c-0.090 0.055-0.198 0.082-0.324 0.082zM15.299 16.527c0.085 0.001 0.155-0.018 0.211-0.056s0.099-0.091 0.127-0.16c0.029-0.069 0.043-0.15 0.043-0.242s-0.014-0.172-0.043-0.24c-0.028-0.068-0.070-0.122-0.127-0.16s-0.127-0.058-0.211-0.059c-0.085-0.001-0.155 0.018-0.211 0.056s-0.098 0.091-0.127 0.16c-0.028 0.069-0.042 0.15-0.042 0.242s0.014 0.173 0.042 0.241c0.028 0.068 0.070 0.121 0.126 0.159s0.127 0.058 0.212 0.059zM16.347 16.7v-1.064h-0.409v-0.198h1.028v0.198h-0.409v1.064h-0.211zM17.405 16.7v-1.262h0.76v0.211h-0.549v0.315h0.444v0.21h-0.444v0.526h-0.211zM18.857 16.726c-0.126 0-0.234-0.027-0.324-0.082s-0.159-0.133-0.208-0.231c-0.048-0.099-0.072-0.213-0.072-0.344s0.024-0.245 0.072-0.344c0.049-0.099 0.118-0.176 0.208-0.231s0.198-0.083 0.324-0.083 0.234 0.028 0.324 0.083c0.091 0.055 0.16 0.132 0.208 0.231s0.073 0.213 0.073 0.344c0 0.13-0.024 0.245-0.073 0.344s-0.117 0.176-0.208 0.231c-0.090 0.055-0.198 0.082-0.324 0.082zM18.857 16.527c0.085 0.001 0.155-0.018 0.211-0.056s0.099-0.091 0.127-0.16c0.029-0.069 0.043-0.15 0.043-0.242s-0.014-0.172-0.043-0.24c-0.028-0.068-0.070-0.122-0.127-0.16s-0.127-0.058-0.211-0.059c-0.085-0.001-0.155 0.018-0.211 0.056s-0.098 0.091-0.127 0.16c-0.028 0.069-0.042 0.15-0.042 0.242s0.014 0.173 0.042 0.241c0.028 0.068 0.070 0.121 0.126 0.159s0.127 0.058 0.212 0.059zM20.145 16.726c-0.101 0-0.189-0.020-0.266-0.061s-0.136-0.098-0.179-0.173c-0.043-0.074-0.064-0.161-0.064-0.261v-0.792l0.214-0.002v0.788c0 0.047 0.008 0.090 0.024 0.127s0.038 0.069 0.066 0.096c0.027 0.026 0.059 0.045 0.095 0.059s0.073 0.020 0.11 0.020c0.039 0 0.076-0.007 0.111-0.020s0.067-0.034 0.095-0.060c0.027-0.026 0.049-0.058 0.065-0.096s0.024-0.079 0.024-0.126v-0.788h0.214v0.793c0 0.1-0.022 0.187-0.065 0.261s-0.102 0.132-0.179 0.173c-0.076 0.041-0.164 0.061-0.265 0.061zM20.898 16.7v-1.262h0.214l0.586 0.89v-0.89h0.214v1.262h-0.214l-0.586-0.89v0.89h-0.214zM22.157 16.7v-1.262h0.402c0.011 0 0.031 0 0.062 0.001s0.062 0.003 0.091 0.006c0.1 0.013 0.184 0.049 0.253 0.107s0.122 0.132 0.158 0.222c0.036 0.090 0.053 0.188 0.053 0.295s-0.018 0.205-0.053 0.295c-0.036 0.090-0.088 0.164-0.158 0.223s-0.153 0.093-0.253 0.106c-0.029 0.003-0.059 0.006-0.090 0.006s-0.053 0.001-0.063 0.001h-0.402zM22.372 16.501h0.188c0.018 0 0.040-0.001 0.067-0.002s0.052-0.004 0.073-0.008c0.060-0.011 0.108-0.038 0.146-0.080s0.065-0.093 0.082-0.153c0.018-0.060 0.027-0.123 0.027-0.189 0-0.068-0.009-0.133-0.027-0.193s-0.046-0.111-0.084-0.152c-0.037-0.041-0.085-0.067-0.144-0.078-0.021-0.005-0.045-0.007-0.073-0.008s-0.049-0.002-0.067-0.002h-0.188v0.864z"></path>
</symbol>

</defs>
</svg>