<svg width="24" height="24" viewBox="0 0 24 24" fill="none" xmlns="http://www.w3.org/2000/svg">
<g id="fi-rr-angle-small-left">
<path id="Vector" d="M12.71 13.4001C12.6171 13.4938 12.5065 13.5682 12.3846 13.619C12.2628 13.6698 12.1321 13.6959 12 13.6959C11.868 13.6959 11.7373 13.6698 11.6155 13.619C11.4936 13.5682 11.383 13.4938 11.29 13.4001L6.71003 8.81009C6.61707 8.71637 6.50647 8.64197 6.38461 8.5912C6.26275 8.54043 6.13204 8.5143 6.00003 8.5143C5.86802 8.5143 5.73731 8.54043 5.61545 8.5912C5.49359 8.64197 5.38299 8.71637 5.29003 8.81009C5.10378 8.99746 4.99924 9.25091 4.99924 9.51509C4.99924 9.77928 5.10378 10.0327 5.29003 10.2201L9.88004 14.8101C10.4425 15.3719 11.205 15.6875 12 15.6875C12.795 15.6875 13.5575 15.3719 14.12 14.8101L18.71 10.2201C18.8948 10.0338 18.9989 9.78243 19 9.52009C19.0008 9.38849 18.9756 9.25802 18.9258 9.13619C18.8761 9.01435 18.8027 8.90353 18.71 8.81009C18.6171 8.71637 18.5065 8.64197 18.3846 8.5912C18.2628 8.54043 18.1321 8.5143 18 8.5143C17.868 8.5143 17.7373 8.54043 17.6155 8.5912C17.4936 8.64197 17.383 8.71637 17.29 8.81009L12.71 13.4001Z" fill="#4DC274"/>
</g>
</svg>
